<?xml version="1.0" encoding="UTF-8"?>
<svg id="Layer_1" xmlns="http://www.w3.org/2000/svg" version="1.1" viewBox="0 0 16 16">
  <!-- Generator: Adobe Illustrator 29.0.0, SVG Export Plug-In . SVG Version: 2.1.0 Build 186)  -->
  <defs>
    <style>
      .st0 {
        fill: #7180cc;
      }
    </style>
  </defs>
  <path class="st0" d="M8,0C3.6,0,0,3.6,0,8s3.6,8,8,8,8-3.6,8-8S12.4,0,8,0ZM13.2,5.3c.4,0,.7.3,1.1.3-.3.4-1.6.4-2,0,.3,0,.5-.2.9-.2ZM1,8c0-.4,0-.8.1-1.3.1,0,.2,0,.3,0,0,0,.1,0,.1.2,0,.3.3.5.5.5.8,0,1.1.8,1.8,1,.2.1,0,.3,0,.5-.6.8,0,1.4.4,1.9.5.4.5.8.6,1.4,0,.7,0,1.5.4,2.2-2.5-1.2-4.2-3.6-4.2-6.5ZM8,15c-.7,0-1.5-.1-2.1-.3,0-.2,0-.4,0-.6.4-.8.8-1.5,1.3-2.2.2-.2.4-.4.4-.7s0-.5.2-.7c.3-.5.2-.8-.2-.9-.8-.2-1.2-.9-1.8-1.2s-1.2-.5-1.7-.2c-.2.1-.5.2-.5-.1s-.5-.7-.4-1.1c0,0-.2,0-.3,0s-.2.2-.4,0c-.2-.2,0-.4,0-.6,0-.2.2-.3.4-.4.4,0,.8,0,1,.4.3-.9.9-1.4,1.5-1.8,0,0,.8-.7.9-.7s.2.2.4.3c.2,0,.3,0,.3-.2,0-.5-.2-1.1-.6-1.2,0,0,0,0,0,0,.3,0,.7-.3.6-.6,0-.4-.4-.6-.8-.6s-.4,0-.6.1c-.4.2-.9.4-1.5.4,1.1-.8,2.5-1.2,3.9-1.2h.8c-.6.1-1.2.3-1.6.5.6.1.7.4.5.9,0,.2,0,.4.2.5.2,0,.4,0,.5,0,.2-.3.6-.4.9-.5.4,0,.7-.3,1-.7,0-.1.1-.1.2-.2.6.2,1.2.6,1.8,1-.1,0-.1,0-.2,0-.2.2-.5.3-.2.7.1.2,0,.3-.1.4-.2,0-.3,0-.4,0s-.1-.3-.4-.3c-.1.2-.4.3-.4.6.5,0,.4.4.5.7-.6,0-.8.4-.5.9.1.2-.1.3-.2.4-.4.6-.8,1-.8,1.7s.5,1.4,1.3,1.3q.9-.1,1.2.7c0,.1.1.2.1.3.1.2.2.4.1.6-.3.8.1,1.4.4,2,.1.2.2.3.3.4-1.3,1.4-3,2.2-5,2.2Z"/>
</svg>